<svg xmlns="http://www.w3.org/2000/svg" viewBox="0 0 178 183" width="100%" height="100%">
  <ellipse cx="100" cy="160" rx="70" ry="15" fill="#cfd8dc" />
  
  <path d="M 45 120 C 30 90, 70 80, 100 100 C 130 80, 170 90, 155 120 Z" fill="#8bc34a" />
  
  <circle cx="145" cy="115" r="18" fill="#ff9800" />
  <circle cx="140" cy="110" r="15" fill="#ffb74d" />
  
  <circle cx="55" cy="115" r="5" fill="#ffee58"/>
  <circle cx="65" cy="110" r="5" fill="#ffee58"/>
  <circle cx="60" cy="125" r="5" fill="#ffee58"/>
  <circle cx="70" cy="120" r="5" fill="#ffee58"/>
  
  <rect x="80" y="95" width="16" height="16" rx="3" fill="#fff9c4" stroke="#fbc02d" stroke-width="1"/>
  <rect x="100" y="90" width="16" height="16" rx="3" fill="#fff9c4" stroke="#fbc02d" stroke-width="1"/>
  <rect x="90" y="110" width="16" height="16" rx="3" fill="#fff9c4" stroke="#fbc02d" stroke-width="1"/>
  <rect x="110" y="105" width="16" height="16" rx="3" fill="#fff9c4" stroke="#fbc02d" stroke-width="1"/>
  <rect x="75" y="115" width="16" height="16" rx="3" fill="#fff9c4" stroke="#fbc02d" stroke-width="1"/>
  
  <path d="M 70 95 Q 90 75 110 90" fill="none" stroke="#ab47bc" stroke-width="2.5" stroke-linecap="round"/>
  <path d="M 85 85 Q 105 70 125 95" fill="none" stroke="#ab47bc" stroke-width="2.5" stroke-linecap="round"/>
  <path d="M 80 120 Q 100 105 120 125" fill="none" stroke="#ab47bc" stroke-width="2.5" stroke-linecap="round"/>
  
  <circle cx="95" cy="100" r="1.5" fill="#e53935"/>
  <circle cx="115" cy="95" r="1.5" fill="#e53935"/>
  <circle cx="105" cy="115" r="1.5" fill="#e53935"/>
  <circle cx="85" cy="110" r="1.5" fill="#e53935"/>
  
  <path d="M 40 130 A 60 40 0 0 0 160 130 Z" fill="#ffffff" stroke="#90a4ae" stroke-width="2"/>
  <circle cx="85" cy="145" r="3" fill="#263238"/>
  <circle cx="115" cy="145" r="3" fill="#263238"/>
  <path d="M 95 150 Q 100 155 105 150" fill="none" stroke="#263238" stroke-width="2" stroke-linecap="round"/>
  <circle cx="75" cy="148" r="4" fill="#ffcdd2" opacity="0.7"/>
  <circle cx="125" cy="148" r="4" fill="#ffcdd2" opacity="0.7"/>
</svg>